<mxfile host="app.diagrams.net" modified="2023-10-15T05:09:37.423Z" agent="Mozilla/5.0 (Macintosh; Intel Mac OS X 10_15_7) AppleWebKit/537.36 (KHTML, like Gecko) Chrome/117.0.0.0 Safari/537.36" etag="gP8EmBkCqr0srYoakun_" version="22.0.4" type="device">
  <diagram name="Page-1" id="bdXdrx7eI1PMC24n5lrD">
    <mxGraphModel dx="954" dy="609" grid="1" gridSize="10" guides="1" tooltips="1" connect="1" arrows="1" fold="1" page="1" pageScale="1" pageWidth="827" pageHeight="1169" math="0" shadow="0">
      <root>
        <mxCell id="0" />
        <mxCell id="1" parent="0" />
        <mxCell id="A2ow1utEBB8lJv1ts_8k-4" style="edgeStyle=orthogonalEdgeStyle;rounded=0;orthogonalLoop=1;jettySize=auto;html=1;entryX=0.5;entryY=0;entryDx=0;entryDy=0;" edge="1" parent="1" source="A2ow1utEBB8lJv1ts_8k-1" target="A2ow1utEBB8lJv1ts_8k-2">
          <mxGeometry relative="1" as="geometry" />
        </mxCell>
        <mxCell id="A2ow1utEBB8lJv1ts_8k-1" value="Setup end point &amp;lt;station&amp;gt; &amp;lt;date&amp;gt;" style="text;html=1;strokeColor=none;fillColor=none;align=center;verticalAlign=middle;whiteSpace=wrap;rounded=0;" vertex="1" parent="1">
          <mxGeometry x="540" y="160" width="130" height="30" as="geometry" />
        </mxCell>
        <mxCell id="A2ow1utEBB8lJv1ts_8k-12" style="edgeStyle=orthogonalEdgeStyle;rounded=0;orthogonalLoop=1;jettySize=auto;html=1;exitX=0.5;exitY=1;exitDx=0;exitDy=0;" edge="1" parent="1" source="A2ow1utEBB8lJv1ts_8k-2" target="A2ow1utEBB8lJv1ts_8k-11">
          <mxGeometry relative="1" as="geometry" />
        </mxCell>
        <mxCell id="A2ow1utEBB8lJv1ts_8k-2" value="When user request&amp;nbsp;" style="text;html=1;strokeColor=none;fillColor=none;align=center;verticalAlign=middle;whiteSpace=wrap;rounded=0;" vertex="1" parent="1">
          <mxGeometry x="540" y="250" width="130" height="30" as="geometry" />
        </mxCell>
        <mxCell id="A2ow1utEBB8lJv1ts_8k-6" value="&lt;font style=&quot;font-size: 18px;&quot;&gt;&lt;b&gt;Data Cleaning&lt;/b&gt;&lt;/font&gt;" style="text;html=1;strokeColor=none;fillColor=none;align=center;verticalAlign=middle;whiteSpace=wrap;rounded=0;" vertex="1" parent="1">
          <mxGeometry x="90" y="90" width="130" height="30" as="geometry" />
        </mxCell>
        <mxCell id="A2ow1utEBB8lJv1ts_8k-9" value="&lt;span style=&quot;font-size: 18px;&quot;&gt;&lt;b&gt;Function&lt;/b&gt;&lt;/span&gt;" style="text;html=1;strokeColor=none;fillColor=none;align=center;verticalAlign=middle;whiteSpace=wrap;rounded=0;" vertex="1" parent="1">
          <mxGeometry x="540" y="90" width="130" height="30" as="geometry" />
        </mxCell>
        <mxCell id="A2ow1utEBB8lJv1ts_8k-14" style="edgeStyle=orthogonalEdgeStyle;rounded=0;orthogonalLoop=1;jettySize=auto;html=1;entryX=0.5;entryY=0;entryDx=0;entryDy=0;" edge="1" parent="1" source="A2ow1utEBB8lJv1ts_8k-11" target="A2ow1utEBB8lJv1ts_8k-13">
          <mxGeometry relative="1" as="geometry" />
        </mxCell>
        <mxCell id="A2ow1utEBB8lJv1ts_8k-11" value="Search station ID in stations.txt&amp;nbsp;" style="text;html=1;strokeColor=none;fillColor=none;align=center;verticalAlign=middle;whiteSpace=wrap;rounded=0;" vertex="1" parent="1">
          <mxGeometry x="540" y="340" width="130" height="30" as="geometry" />
        </mxCell>
        <mxCell id="A2ow1utEBB8lJv1ts_8k-16" style="edgeStyle=orthogonalEdgeStyle;rounded=0;orthogonalLoop=1;jettySize=auto;html=1;" edge="1" parent="1" source="A2ow1utEBB8lJv1ts_8k-13" target="A2ow1utEBB8lJv1ts_8k-15">
          <mxGeometry relative="1" as="geometry" />
        </mxCell>
        <mxCell id="A2ow1utEBB8lJv1ts_8k-13" value="Search date in files + {station ID}" style="text;html=1;strokeColor=none;fillColor=none;align=center;verticalAlign=middle;whiteSpace=wrap;rounded=0;" vertex="1" parent="1">
          <mxGeometry x="540" y="420" width="130" height="30" as="geometry" />
        </mxCell>
        <mxCell id="A2ow1utEBB8lJv1ts_8k-19" style="edgeStyle=orthogonalEdgeStyle;rounded=0;orthogonalLoop=1;jettySize=auto;html=1;entryX=0.5;entryY=0;entryDx=0;entryDy=0;" edge="1" parent="1" source="A2ow1utEBB8lJv1ts_8k-15" target="A2ow1utEBB8lJv1ts_8k-17">
          <mxGeometry relative="1" as="geometry" />
        </mxCell>
        <mxCell id="A2ow1utEBB8lJv1ts_8k-15" value="Search record based on its date in files + {station ID}" style="text;html=1;strokeColor=none;fillColor=none;align=center;verticalAlign=middle;whiteSpace=wrap;rounded=0;" vertex="1" parent="1">
          <mxGeometry x="540" y="510" width="130" height="30" as="geometry" />
        </mxCell>
        <mxCell id="A2ow1utEBB8lJv1ts_8k-17" value="Return its weather data" style="text;html=1;strokeColor=none;fillColor=none;align=center;verticalAlign=middle;whiteSpace=wrap;rounded=0;" vertex="1" parent="1">
          <mxGeometry x="540" y="590" width="130" height="30" as="geometry" />
        </mxCell>
      </root>
    </mxGraphModel>
  </diagram>
</mxfile>
